<svg width="140" height="36" viewBox="0 0 140 36" fill="none" xmlns="http://www.w3.org/2000/svg">
<rect width="140" height="36" rx="4" fill="#756157"/>
<path d="M33.2361 14.752H29.3161V24H27.1241V12.8H35.4281V24H33.2361V14.752ZM36.9908 18.4C36.9908 16.5333 37.4015 15.0987 38.2228 14.096C39.0441 13.0827 40.2175 12.576 41.7428 12.576C42.5428 12.576 43.2415 12.7147 43.8388 12.992C44.4361 13.2693 44.9321 13.664 45.3268 14.176C45.7215 14.688 46.0148 15.3013 46.2068 16.016C46.3988 16.7307 46.4948 17.5253 46.4948 18.4C46.4948 20.2667 46.0788 21.7067 45.2468 22.72C44.4255 23.7227 43.2575 24.224 41.7428 24.224C40.9321 24.224 40.2281 24.0853 39.6308 23.808C39.0335 23.5307 38.5375 23.136 38.1428 22.624C37.7588 22.112 37.4708 21.4987 37.2788 20.784C37.0868 20.0693 36.9908 19.2747 36.9908 18.4ZM39.2948 18.4C39.2948 18.9653 39.3428 19.488 39.4388 19.968C39.5348 20.4373 39.6788 20.8427 39.8708 21.184C40.0735 21.5253 40.3295 21.792 40.6388 21.984C40.9481 22.176 41.3161 22.272 41.7428 22.272C42.5215 22.272 43.1241 21.968 43.5508 21.36C43.9775 20.752 44.1908 19.7653 44.1908 18.4C44.1908 17.856 44.1428 17.3493 44.0468 16.88C43.9615 16.4107 43.8228 16 43.6308 15.648C43.4388 15.296 43.1881 15.024 42.8788 14.832C42.5695 14.6293 42.1908 14.528 41.7428 14.528C40.9641 14.528 40.3615 14.8427 39.9348 15.472C39.5081 16.0907 39.2948 17.0667 39.2948 18.4ZM57.5887 26H56.0367L55.7967 24H48.5967L48.3567 26H46.8047V22.048H47.9887C48.0634 21.9307 48.186 21.6693 48.3567 21.264C48.5274 20.8587 48.698 20.288 48.8687 19.552C49.0394 18.8053 49.1834 17.8773 49.3007 16.768C49.418 15.648 49.4714 14.3253 49.4607 12.8H56.1647V22.048H57.5887V26ZM53.9727 22.048V14.752H51.4927C51.4287 16.6507 51.274 18.208 51.0287 19.424C50.794 20.6293 50.554 21.504 50.3087 22.048H53.9727ZM58.8272 12.912C59.2752 12.8267 59.7659 12.7627 60.2992 12.72C60.8432 12.6667 61.3819 12.64 61.9152 12.64C62.4699 12.64 63.0245 12.688 63.5792 12.784C64.1445 12.8693 64.6512 13.0507 65.0992 13.328C65.5472 13.5947 65.9099 13.9733 66.1872 14.464C66.4752 14.944 66.6192 15.5733 66.6192 16.352C66.6192 17.056 66.4965 17.6533 66.2512 18.144C66.0059 18.624 65.6805 19.0187 65.2752 19.328C64.8699 19.6373 64.4059 19.8613 63.8832 20C63.3712 20.1387 62.8379 20.208 62.2832 20.208C62.2299 20.208 62.1445 20.208 62.0272 20.208C61.9099 20.208 61.7872 20.208 61.6592 20.208C61.5312 20.1973 61.4032 20.1867 61.2752 20.176C61.1579 20.1653 61.0725 20.1547 61.0192 20.144V24H58.8272V12.912ZM62.0912 14.528C61.8779 14.528 61.6752 14.5387 61.4832 14.56C61.2912 14.5707 61.1365 14.5867 61.0192 14.608V18.24C61.0619 18.2507 61.1259 18.2613 61.2112 18.272C61.2965 18.2827 61.3872 18.2933 61.4832 18.304C61.5792 18.304 61.6699 18.304 61.7552 18.304C61.8512 18.304 61.9205 18.304 61.9632 18.304C62.2512 18.304 62.5339 18.2773 62.8112 18.224C63.0992 18.1707 63.3552 18.0747 63.5792 17.936C63.8032 17.7867 63.9792 17.584 64.1072 17.328C64.2459 17.072 64.3152 16.736 64.3152 16.32C64.3152 15.968 64.2512 15.68 64.1232 15.456C63.9952 15.2213 63.8245 15.0347 63.6112 14.896C63.4085 14.7573 63.1739 14.6613 62.9072 14.608C62.6405 14.5547 62.3685 14.528 62.0912 14.528ZM67.4596 18.4C67.4596 16.5333 67.8702 15.0987 68.6916 14.096C69.5129 13.0827 70.6862 12.576 72.2116 12.576C73.0116 12.576 73.7102 12.7147 74.3076 12.992C74.9049 13.2693 75.4009 13.664 75.7956 14.176C76.1902 14.688 76.4836 15.3013 76.6756 16.016C76.8676 16.7307 76.9636 17.5253 76.9636 18.4C76.9636 20.2667 76.5476 21.7067 75.7156 22.72C74.8942 23.7227 73.7262 24.224 72.2116 24.224C71.4009 24.224 70.6969 24.0853 70.0996 23.808C69.5022 23.5307 69.0062 23.136 68.6116 22.624C68.2276 22.112 67.9396 21.4987 67.7476 20.784C67.5556 20.0693 67.4596 19.2747 67.4596 18.4ZM69.7636 18.4C69.7636 18.9653 69.8116 19.488 69.9076 19.968C70.0036 20.4373 70.1476 20.8427 70.3396 21.184C70.5422 21.5253 70.7982 21.792 71.1076 21.984C71.4169 22.176 71.7849 22.272 72.2116 22.272C72.9902 22.272 73.5929 21.968 74.0196 21.36C74.4462 20.752 74.6596 19.7653 74.6596 18.4C74.6596 17.856 74.6116 17.3493 74.5156 16.88C74.4302 16.4107 74.2916 16 74.0996 15.648C73.9076 15.296 73.6569 15.024 73.3476 14.832C73.0382 14.6293 72.6596 14.528 72.2116 14.528C71.4329 14.528 70.8302 14.8427 70.4036 15.472C69.9769 16.0907 69.7636 17.0667 69.7636 18.4ZM78.5303 12.8H85.4263V14.752H80.7223V17.088C80.9036 17.056 81.1223 17.024 81.3783 16.992C81.645 16.96 81.9063 16.944 82.1623 16.944C82.7596 16.944 83.309 17.0027 83.8103 17.12C84.3116 17.2373 84.7383 17.4347 85.0903 17.712C85.453 17.9787 85.7356 18.336 85.9383 18.784C86.141 19.2213 86.2423 19.76 86.2423 20.4C86.2423 21.0293 86.1356 21.5787 85.9223 22.048C85.7196 22.5173 85.421 22.9067 85.0263 23.216C84.6423 23.5253 84.173 23.76 83.6183 23.92C83.0743 24.08 82.461 24.16 81.7783 24.16C81.597 24.16 81.3676 24.1547 81.0903 24.144C80.8236 24.1333 80.5356 24.1173 80.2263 24.096C79.9276 24.0747 79.629 24.048 79.3303 24.016C79.0316 23.984 78.765 23.9413 78.5303 23.888V12.8ZM81.9383 22.352C82.2156 22.352 82.4716 22.32 82.7063 22.256C82.9516 22.1813 83.165 22.0747 83.3463 21.936C83.5276 21.7867 83.6716 21.6 83.7783 21.376C83.885 21.152 83.9383 20.88 83.9383 20.56C83.9383 20.176 83.8796 19.8667 83.7623 19.632C83.645 19.3973 83.485 19.216 83.2823 19.088C83.0796 18.9493 82.845 18.8587 82.5783 18.816C82.3223 18.7733 82.045 18.752 81.7463 18.752C81.597 18.752 81.4103 18.768 81.1863 18.8C80.9623 18.8213 80.8076 18.8427 80.7223 18.864V22.272C80.8396 22.304 81.0156 22.3253 81.2503 22.336C81.4956 22.3467 81.725 22.352 81.9383 22.352ZM93.9433 19.312H89.8473V24H87.6553V12.8H89.8473V17.36H93.9433V12.8H96.1353V24H93.9433V19.312ZM98.0772 12.8H104.717V14.752H100.269V17.36H104.317V19.312H100.269V22.048H104.797V24H98.0772V12.8ZM106.437 12.8H113.077V14.752H108.629V17.36H112.677V19.312H108.629V22.048H113.157V24H106.437V12.8Z" fill="white"/>
</svg>
